<svg id="sun" xmlns="http://www.w3.org/2000/svg" width="30" height="30" viewBox="0 0 45.16 45.16">
  <g id="Group_20" data-name="Group 20">
    <path id="Path_10" data-name="Path 10" d="M22.58,11.269A11.312,11.312,0,1,0,33.891,22.581,11.325,11.325,0,0,0,22.58,11.269Z" fill="#fff"/>
    <g id="Group_19" data-name="Group 19">
      <g id="Group_11" data-name="Group 11">
        <path id="Path_11" data-name="Path 11" d="M22.58,7.944a2.207,2.207,0,0,1-2.207-2.206V2.207a2.207,2.207,0,0,1,4.414,0V5.738A2.207,2.207,0,0,1,22.58,7.944Z" fill="#fff"/>
      </g>
      <g id="Group_12" data-name="Group 12">
        <path id="Path_12" data-name="Path 12" d="M22.58,37.215a2.207,2.207,0,0,0-2.207,2.207v3.53a2.207,2.207,0,1,0,4.414,0v-3.53A2.208,2.208,0,0,0,22.58,37.215Z" fill="#fff"/>
      </g>
      <g id="Group_13" data-name="Group 13">
        <path id="Path_13" data-name="Path 13" d="M32.928,12.231a2.208,2.208,0,0,1,0-3.121l2.5-2.5a2.207,2.207,0,0,1,3.121,3.121l-2.5,2.5A2.207,2.207,0,0,1,32.928,12.231Z" fill="#fff"/>
      </g>
      <g id="Group_14" data-name="Group 14">
        <path id="Path_14" data-name="Path 14" d="M12.231,32.93a2.2,2.2,0,0,0-3.121,0l-2.5,2.5a2.207,2.207,0,0,0,3.121,3.121l2.5-2.5A2.2,2.2,0,0,0,12.231,32.93Z" fill="#fff"/>
      </g>
      <g id="Group_15" data-name="Group 15">
        <path id="Path_15" data-name="Path 15" d="M37.215,22.58a2.207,2.207,0,0,1,2.207-2.207h3.531a2.207,2.207,0,1,1,0,4.413H39.422A2.206,2.206,0,0,1,37.215,22.58Z" fill="#fff"/>
      </g>
      <g id="Group_16" data-name="Group 16">
        <path id="Path_16" data-name="Path 16" d="M7.944,22.58a2.207,2.207,0,0,0-2.207-2.207H2.207a2.207,2.207,0,1,0,0,4.413H5.738A2.206,2.206,0,0,0,7.944,22.58Z" fill="#fff"/>
      </g>
      <g id="Group_17" data-name="Group 17">
        <path id="Path_17" data-name="Path 17" d="M32.928,32.93a2.208,2.208,0,0,1,3.121,0l2.5,2.5a2.207,2.207,0,0,1-3.121,3.12l-2.5-2.5A2.205,2.205,0,0,1,32.928,32.93Z" fill="#fff"/>
      </g>
      <g id="Group_18" data-name="Group 18">
        <path id="Path_18" data-name="Path 18" d="M12.231,12.231a2.207,2.207,0,0,0,0-3.121l-2.5-2.5a2.207,2.207,0,0,0-3.121,3.12l2.5,2.5A2.2,2.2,0,0,0,12.231,12.231Z" fill="#fff"/>
      </g>
    </g>
  </g>
</svg>
